<svg width="513" height="513" viewBox="0 0 513 513" fill="none" xmlns="http://www.w3.org/2000/svg">
<rect width="512" height="512" transform="translate(0.245117 0.5)" fill="#202020"/>
<rect width="512" height="512" transform="translate(0.245117 0.5)" fill="url(#paint0_linear_466_20574)"/>
<g clip-path="url(#clip0_466_20574)">
<path d="M139.467 215.124C142.006 212.039 143.727 208.302 144.515 204.39C145.147 204.526 145.789 204.633 146.46 204.682C149.66 204.896 152.159 205.947 154.513 207.183C158.627 209.625 162.809 212.652 163.344 217.829L163.82 220.292C164.151 221.907 164.647 223.338 165.406 224.457C165.746 225.06 166.271 225.44 167.049 225.527C167.808 225.634 168.751 225.527 169.529 225.595C171.124 225.703 171.65 227.114 172.321 228.311C173.585 230.89 173.848 234.335 175.229 236.953C178.701 242.402 187.726 245.341 194.116 244.68C195.828 244.514 197.432 244.067 198.901 243.405L202.081 246.081C204.668 242.675 207.567 239.512 210.747 236.651L207.401 233.838C208.549 230.422 208.597 226.598 207.226 222.997C205.942 219.017 203.579 215.426 200.642 212.701C199.718 211.786 198.648 211.046 197.316 210.608C194.505 209.703 191.072 210.044 188.31 209.246C187.006 208.789 185.528 208.516 185.149 206.969C184.789 205.616 184.915 203.592 183.32 203.105C180.733 201.879 176.892 202.453 174.023 202.093C168.323 201.324 161.836 193.48 160.572 187.885C160.417 187.281 160.212 186.717 159.998 186.162C161.399 185.607 162.751 184.926 164.025 184.099C175.598 176.362 179.839 160.733 176.24 147.556C172.817 134.126 161.185 124.433 148.279 120.365C126.766 113.368 103.006 122.72 88.2618 138.914C87.7463 139.439 87.3184 140.014 86.9293 140.607C86.4528 141.045 86.0151 141.522 85.6164 142.057C69.1508 163.146 65.9997 194.882 85.3343 215.27C99.5338 231.366 125.628 231.717 139.487 215.134L139.467 215.124ZM92.3757 197.461C86.4139 183.388 91.9089 166.805 102.306 156.256C102.811 155.74 103.239 155.176 103.619 154.592C104.134 154.115 104.611 153.59 105.039 153.006C108.579 148.101 113.091 143.858 118.265 140.724C123.42 137.649 129.207 135.615 135.091 135.352C143.727 134.924 152.986 137.873 159.045 144.247C166.69 152.412 166.797 167.584 157.839 174.922C152.743 178.824 144.068 178.698 139.895 173.413C137.892 170.834 138.145 166.105 140.547 164.032C141.695 163.029 143.63 163.078 144.612 164.207C144.953 164.557 145.361 164.888 145.809 165.151C148.405 166.669 151.741 165.793 153.258 163.195C154.99 160.285 153.579 156.665 150.574 155.312C145.41 152.188 138.398 152.889 134.128 157.132C128.409 162.806 128.108 172.041 132.183 178.571C129.888 177.569 127.369 177.053 124.704 177.199C116.661 177.384 108.481 183.914 109.172 192.517C109.386 196.205 111.234 200.02 114.19 202.375C116.7 204.039 120.074 203.358 121.738 200.857C123.401 198.356 122.72 194.969 120.22 193.305C118.946 192.536 118.557 190.639 119.345 189.335C121.864 185.403 128.419 185.442 131.23 189.237C134.809 193.412 135.548 199.67 133.068 204.487C127.408 214.589 112.449 217.109 103.084 210.998C98.1722 207.874 94.6418 202.706 92.3854 197.461H92.3757Z" fill="white"/>
<path d="M426.404 142.048C426.005 141.512 425.558 141.035 425.091 140.597C424.712 140.004 424.274 139.43 423.759 138.904C409.014 122.71 385.255 113.358 363.741 120.355C350.835 124.423 339.204 134.116 335.78 147.546C332.191 160.733 336.432 176.352 347.996 184.089C349.27 184.916 350.622 185.598 352.022 186.152C351.808 186.697 351.614 187.271 351.448 187.875C350.184 193.48 343.697 201.314 337.998 202.083C335.129 202.443 331.287 201.869 328.7 203.095C327.095 203.582 327.231 205.606 326.871 206.959C326.492 208.516 325.014 208.779 323.711 209.236C320.948 210.034 317.515 209.694 314.705 210.599C313.372 211.027 312.302 211.776 311.378 212.691C308.441 215.426 306.078 219.007 304.794 222.987C303.423 226.588 303.471 230.413 304.619 233.829L301.273 236.641C304.454 239.502 307.352 242.655 309.939 246.071L313.119 243.395C314.588 244.057 316.193 244.504 317.904 244.67C324.294 245.322 333.32 242.383 336.792 236.943C338.163 234.335 338.426 230.89 339.7 228.301C340.38 227.094 340.896 225.683 342.491 225.586C343.279 225.508 344.212 225.625 344.971 225.518C345.739 225.43 346.274 225.05 346.615 224.447C347.363 223.328 347.859 221.897 348.2 220.282L348.676 217.82C349.211 212.642 353.393 209.616 357.507 207.173C359.851 205.937 362.36 204.886 365.56 204.672C366.221 204.623 366.873 204.516 367.505 204.38C368.293 208.292 370.014 212.029 372.553 215.114C386.422 231.707 412.506 231.357 426.705 215.25C446.04 194.853 442.889 163.127 426.423 142.038L426.404 142.048ZM419.635 197.461C417.379 202.696 413.848 207.874 408.937 210.998C399.571 217.109 384.613 214.589 378.952 204.487C376.482 199.66 377.211 193.412 380.791 189.237C383.601 185.452 390.156 185.403 392.675 189.335C393.463 190.639 393.074 192.536 391.8 193.305C389.291 194.969 388.61 198.356 390.283 200.857C391.946 203.368 395.33 204.049 397.83 202.375C400.787 200.03 402.634 196.205 402.848 192.517C403.539 183.914 395.35 177.394 387.316 177.199C384.652 177.053 382.133 177.569 379.837 178.571C383.912 172.031 383.611 162.806 377.892 157.132C373.623 152.899 366.62 152.188 361.446 155.312C358.441 156.665 357.031 160.285 358.762 163.195C360.279 165.793 363.615 166.669 366.212 165.151C366.659 164.888 367.068 164.557 367.408 164.207C368.39 163.078 370.326 163.029 371.473 164.032C373.876 166.095 374.128 170.825 372.125 173.413C367.953 178.698 359.268 178.834 354.181 174.922C345.224 167.584 345.331 152.412 352.975 144.247C359.034 137.873 368.293 134.924 376.929 135.352C382.813 135.615 388.6 137.649 393.755 140.724C398.929 143.858 403.442 148.091 406.982 153.006C407.41 153.589 407.886 154.115 408.402 154.592C408.781 155.176 409.209 155.74 409.715 156.256C420.121 166.805 425.616 183.388 419.645 197.461H419.635Z" fill="white"/>
<path d="M389.797 330.554C388.97 329.863 387.745 329.97 387.054 330.797L372.485 348.168C371.795 348.995 370.569 349.102 369.743 348.412L359.978 340.217C359.151 339.526 359.044 338.3 359.735 337.473L374.304 320.102C374.994 319.274 374.887 318.048 374.061 317.357L364.209 309.085C363.382 308.394 362.157 308.501 361.466 309.328L334.944 340.957L313.431 322.895C311.155 326.534 308.549 329.94 305.65 333.064L380.071 395.553C380.898 396.244 382.123 396.137 382.814 395.309L388.533 388.487C389.223 387.66 389.116 386.434 388.289 385.743L373.351 373.199L399.873 341.57C400.563 340.743 400.456 339.517 399.63 338.826L389.777 330.554H389.797Z" fill="white"/>
<path d="M198.561 322.885L177.048 340.947L150.526 309.319C149.835 308.491 148.61 308.384 147.783 309.075L137.931 317.347C137.104 318.038 136.997 319.265 137.688 320.092L152.257 337.463C152.947 338.29 152.84 339.517 152.014 340.208L142.249 348.402C141.422 349.093 140.197 348.986 139.506 348.158L124.937 330.787C124.247 329.96 123.021 329.853 122.195 330.544L112.343 338.816C111.516 339.507 111.409 340.733 112.099 341.56L138.621 373.189L123.683 385.733C122.856 386.424 122.749 387.65 123.44 388.477L129.158 395.3C129.849 396.127 131.074 396.234 131.901 395.543L206.322 333.055C203.424 329.921 200.817 326.515 198.541 322.885H198.561Z" fill="white"/>
<path d="M255.708 331.818C258.023 331.818 259.891 333.697 259.891 336.013C259.891 336.762 259.677 337.463 259.326 338.076C262.682 337.901 265.95 337.414 269.12 336.665C269.081 336.451 269.052 336.237 269.052 336.022C269.052 333.706 270.929 331.828 273.244 331.828C274.888 331.828 276.298 332.792 276.988 334.173C290.896 328.568 302.003 317.474 307.614 303.557C305.64 303.216 304.142 301.523 304.142 299.45C304.142 297.134 306.019 295.256 308.334 295.256C308.976 295.256 309.579 295.411 310.124 295.674C310.24 295.168 310.367 294.672 310.474 294.166C310.493 294.078 310.513 293.991 310.532 293.903C310.688 293.115 310.834 292.317 310.96 291.509C310.979 291.363 311.009 291.217 311.028 291.071C311.145 290.302 311.242 289.533 311.32 288.755C311.339 288.57 311.359 288.375 311.378 288.19C311.446 287.441 311.505 286.692 311.553 285.933C311.563 285.719 311.573 285.495 311.582 285.271C311.602 284.765 311.612 284.259 311.621 283.743C310.853 284.716 309.686 285.349 308.354 285.349C306.039 285.349 304.162 283.471 304.162 281.154C304.162 278.838 306.039 276.96 308.354 276.96C309.589 276.96 310.678 277.505 311.446 278.352C311.427 278.128 311.417 277.904 311.398 277.68C311.359 277.271 311.31 276.863 311.262 276.454C311.203 275.919 311.135 275.383 311.057 274.848C310.999 274.449 310.931 274.04 310.863 273.641C310.775 273.106 310.678 272.561 310.571 272.026C310.493 271.656 310.415 271.286 310.328 270.916C310.201 270.362 310.085 269.807 309.949 269.262C309.861 268.912 309.764 268.571 309.667 268.23C309.55 267.792 309.423 267.355 309.297 266.926C308.986 266.994 308.674 267.043 308.344 267.043C306.029 267.043 304.152 265.175 304.152 262.858C304.152 261.272 305.037 259.919 306.331 259.199C306.301 259.131 306.272 259.053 306.233 258.985C306.087 258.683 305.932 258.401 305.786 258.1C305.533 257.584 305.28 257.078 305.008 256.572C304.852 256.289 304.697 256.017 304.541 255.744C304.278 255.287 304.026 254.83 303.753 254.372C303.432 256.367 301.711 257.895 299.63 257.895C297.315 257.895 295.438 256.017 295.438 253.701C295.438 251.385 297.315 249.506 299.63 249.506C299.941 249.506 300.242 249.545 300.534 249.613C300.447 249.497 300.359 249.39 300.272 249.273C299.776 248.621 299.27 247.978 298.745 247.356C298.56 247.132 298.365 246.927 298.18 246.704C297.714 246.168 297.247 245.643 296.761 245.127C296.556 244.903 296.342 244.689 296.128 244.465C295.632 243.959 295.136 243.453 294.621 242.967C294.417 242.772 294.212 242.577 294.008 242.383C293.425 241.847 292.841 241.322 292.238 240.806C292.092 240.68 291.956 240.553 291.81 240.436C290.264 239.142 288.649 237.935 286.967 236.816C286.84 236.728 286.704 236.651 286.578 236.563C285.878 236.106 285.168 235.668 284.448 235.239C284.234 235.113 284.01 234.986 283.786 234.86C283.135 234.49 282.474 234.13 281.812 233.78C281.569 233.653 281.326 233.527 281.083 233.41C280.402 233.069 279.711 232.738 279.011 232.427C278.788 232.33 278.574 232.223 278.35 232.125C277.504 231.755 276.658 231.415 275.792 231.084C275.714 231.055 275.646 231.026 275.568 230.996C274.596 230.636 273.604 230.296 272.612 229.994C272.524 229.965 272.427 229.945 272.339 229.916C271.474 229.653 270.589 229.41 269.704 229.196C269.431 229.128 269.149 229.069 268.867 229.001C268.157 228.836 267.438 228.68 266.718 228.544C266.387 228.486 266.057 228.427 265.716 228.369C265.026 228.252 264.335 228.145 263.645 228.057C263.304 228.009 262.964 227.97 262.614 227.931C261.884 227.843 261.135 227.785 260.396 227.726C260.095 227.707 259.793 227.678 259.492 227.658C258.451 227.6 257.401 227.561 256.35 227.561C256.321 227.561 256.292 227.561 256.263 227.561C255.251 227.561 254.24 227.6 253.238 227.649C252.869 227.668 252.509 227.707 252.139 227.736C251.478 227.785 250.826 227.843 250.175 227.911C249.747 227.96 249.319 228.018 248.901 228.077C248.317 228.155 247.733 228.242 247.16 228.34C246.712 228.417 246.275 228.495 245.837 228.573C245.283 228.68 244.738 228.797 244.184 228.923C243.746 229.021 243.299 229.118 242.861 229.225C242.307 229.361 241.762 229.517 241.217 229.673C240.799 229.79 240.381 229.897 239.963 230.023C239.078 230.296 238.202 230.597 237.337 230.909C236.86 231.084 236.393 231.279 235.917 231.464C235.489 231.639 235.051 231.804 234.623 231.989C234.127 232.203 233.641 232.427 233.145 232.661C232.756 232.836 232.377 233.021 231.997 233.206C231.492 233.449 230.996 233.712 230.509 233.974C230.159 234.159 229.819 234.344 229.478 234.539C228.973 234.821 228.457 235.113 227.961 235.415C227.669 235.59 227.387 235.775 227.105 235.95C226.57 236.29 226.026 236.621 225.501 236.981C225.413 237.04 225.325 237.108 225.228 237.176C223.215 238.548 221.299 240.057 219.49 241.682C219.364 241.789 219.237 241.906 219.111 242.013C218.566 242.509 218.031 243.025 217.506 243.541C217.38 243.667 217.253 243.794 217.117 243.92C216.582 244.456 216.057 245.01 215.541 245.575C215.464 245.662 215.386 245.75 215.308 245.837C214.238 247.025 213.217 248.27 212.244 249.545C214.384 249.74 216.067 251.511 216.067 253.701C216.067 256.017 214.19 257.895 211.875 257.895C210.29 257.895 208.928 257 208.218 255.706C207.44 257.087 206.72 258.508 206.059 259.958C206.779 260.708 207.226 261.73 207.226 262.849C207.226 265.038 205.543 266.8 203.414 266.994C202.422 270.313 201.721 273.758 201.371 277.301C201.887 277.077 202.441 276.94 203.034 276.94C205.349 276.94 207.226 278.819 207.226 281.135C207.226 283.451 205.349 285.329 203.034 285.329C202.353 285.329 201.712 285.144 201.147 284.852C201.274 288.424 201.741 291.918 202.519 295.285C202.694 295.256 202.859 295.236 203.034 295.236C205.349 295.236 207.226 297.115 207.226 299.431C207.226 301.056 206.292 302.438 204.95 303.129C205.767 305.202 206.691 307.216 207.741 309.163C207.712 308.968 207.683 308.773 207.683 308.569C207.683 306.253 209.56 304.375 211.875 304.375C214.19 304.375 216.067 306.253 216.067 308.569C216.067 310.885 214.19 312.763 211.875 312.763C210.893 312.763 210.017 312.403 209.298 311.839C213.499 318.651 219.13 324.481 225.783 328.909C225.442 328.305 225.228 327.614 225.228 326.865C225.228 324.549 227.105 322.67 229.42 322.67C231.735 322.67 233.612 324.549 233.612 326.865C233.612 329.181 231.735 331.05 229.42 331.05C229.362 331.05 229.313 331.04 229.255 331.03C230.996 332.013 232.785 332.908 234.643 333.706C235.392 332.568 236.666 331.809 238.124 331.809C240.439 331.809 242.316 333.687 242.316 336.003C242.316 336.11 242.297 336.217 242.287 336.324C245.419 337.151 248.667 337.696 251.993 337.949C251.682 337.365 251.488 336.704 251.488 335.993C251.488 333.677 253.365 331.799 255.679 331.799L255.708 331.818ZM299.63 267.812C301.944 267.812 303.821 269.69 303.821 272.006C303.821 274.323 301.944 276.191 299.63 276.191C297.315 276.191 295.438 274.313 295.438 272.006C295.438 269.7 297.315 267.812 299.63 267.812ZM299.63 286.098C301.944 286.098 303.821 287.976 303.821 290.293C303.821 292.609 301.944 294.487 299.63 294.487C297.315 294.487 295.438 292.609 295.438 290.293C295.438 287.976 297.315 286.098 299.63 286.098ZM299.63 304.384C301.944 304.384 303.821 306.263 303.821 308.579C303.821 310.895 301.944 312.773 299.63 312.773C297.315 312.773 295.438 310.895 295.438 308.579C295.438 306.263 297.315 304.384 299.63 304.384ZM290.799 295.246C293.113 295.246 294.99 297.124 294.99 299.44C294.99 301.757 293.113 303.625 290.799 303.625C288.484 303.625 286.607 301.757 286.607 299.44C286.607 297.124 288.484 295.246 290.799 295.246ZM290.799 313.532C293.113 313.532 294.99 315.41 294.99 317.727C294.99 320.043 293.113 321.921 290.799 321.921C288.484 321.921 286.607 320.043 286.607 317.727C286.607 315.41 288.484 313.532 290.799 313.532ZM282.085 286.098C284.399 286.098 286.276 287.976 286.276 290.293C286.276 292.609 284.399 294.487 282.085 294.487C279.77 294.487 277.893 292.609 277.893 290.293C277.893 287.976 279.77 286.098 282.085 286.098ZM282.085 304.384C284.399 304.384 286.276 306.263 286.276 308.579C286.276 310.895 284.399 312.773 282.085 312.773C279.77 312.773 277.893 310.895 277.893 308.579C277.893 306.263 279.77 304.384 282.085 304.384ZM282.085 322.68C284.399 322.68 286.276 324.558 286.276 326.875C286.276 329.191 284.399 331.059 282.085 331.059C279.77 331.059 277.893 329.191 277.893 326.875C277.893 324.558 279.77 322.68 282.085 322.68ZM273.254 313.532C275.568 313.532 277.445 315.41 277.445 317.727C277.445 320.043 275.568 321.921 273.254 321.921C270.939 321.921 269.062 320.043 269.062 317.727C269.062 315.41 270.939 313.532 273.254 313.532ZM264.539 304.384C266.854 304.384 268.731 306.263 268.731 308.579C268.731 310.895 266.854 312.773 264.539 312.773C262.225 312.773 260.348 310.895 260.348 308.579C260.348 306.263 262.225 304.384 264.539 304.384ZM264.539 322.68C266.854 322.68 268.731 324.558 268.731 326.875C268.731 329.191 266.854 331.059 264.539 331.059C262.225 331.059 260.348 329.191 260.348 326.875C260.348 324.558 262.225 322.68 264.539 322.68ZM255.708 295.246C258.023 295.246 259.891 297.124 259.891 299.44C259.891 301.757 258.023 303.625 255.708 303.625C253.394 303.625 251.517 301.757 251.517 299.44C251.517 297.124 253.394 295.246 255.708 295.246ZM255.708 313.532C258.023 313.532 259.891 315.41 259.891 317.727C259.891 320.043 258.023 321.921 255.708 321.921C253.394 321.921 251.517 320.043 251.517 317.727C251.517 315.41 253.394 313.532 255.708 313.532ZM211.904 294.487C209.589 294.487 207.712 292.609 207.712 290.293C207.712 287.976 209.589 286.098 211.904 286.098C214.219 286.098 216.096 287.976 216.096 290.293C216.096 292.609 214.219 294.487 211.904 294.487ZM211.904 276.191C209.589 276.191 207.712 274.313 207.712 272.006C207.712 269.7 209.589 267.812 211.904 267.812C214.219 267.812 216.096 269.69 216.096 272.006C216.096 274.323 214.219 276.191 211.904 276.191ZM220.609 321.921C218.294 321.921 216.426 320.043 216.426 317.727C216.426 315.41 218.294 313.532 220.609 313.532C222.923 313.532 224.8 315.41 224.8 317.727C224.8 320.043 222.923 321.921 220.609 321.921ZM220.609 303.625C218.294 303.625 216.426 301.757 216.426 299.44C216.426 297.124 218.294 295.246 220.609 295.246C222.923 295.246 224.8 297.124 224.8 299.44C224.8 301.757 222.923 303.625 220.609 303.625ZM229.449 312.773C227.134 312.773 225.257 310.895 225.257 308.579C225.257 306.263 227.134 304.384 229.449 304.384C231.764 304.384 233.641 306.263 233.641 308.579C233.641 310.895 231.764 312.773 229.449 312.773ZM229.449 294.487C227.134 294.487 225.257 292.609 225.257 290.293C225.257 287.976 227.134 286.098 229.449 286.098C231.764 286.098 233.641 287.976 233.641 290.293C233.641 292.609 231.764 294.487 229.449 294.487ZM238.154 321.921C235.849 321.921 233.972 320.043 233.972 317.727C233.972 315.41 235.849 313.532 238.154 313.532C240.459 313.532 242.345 315.41 242.345 317.727C242.345 320.043 240.468 321.921 238.154 321.921ZM246.994 331.059C244.68 331.059 242.803 329.191 242.803 326.875C242.803 324.558 244.68 322.68 246.994 322.68C249.309 322.68 251.186 324.558 251.186 326.875C251.186 329.191 249.309 331.059 246.994 331.059ZM246.994 312.773C244.68 312.773 242.803 310.895 242.803 308.579C242.803 306.263 244.68 304.384 246.994 304.384C249.309 304.384 251.186 306.263 251.186 308.579C251.186 310.895 249.309 312.773 246.994 312.773Z" fill="white"/>
</g>
<defs>
<linearGradient id="paint0_linear_466_20574" x1="468.239" y1="35.0086" x2="32.8205" y2="512" gradientUnits="userSpaceOnUse">
<stop stop-color="#465034"/>
<stop offset="1"/>
</linearGradient>
<clipPath id="clip0_466_20574">
<rect width="368" height="278" fill="white" transform="translate(72 118)"/>
</clipPath>
</defs>
</svg>
